<?xml version="1.0" encoding="UTF-8"?><svg id="Layer_1" xmlns="http://www.w3.org/2000/svg" xmlns:xlink="http://www.w3.org/1999/xlink" viewBox="0 0 48 48"><defs><style>.cls-1{fill:url(#linear-gradient);}.cls-2{fill:url(#linear-gradient-3);}.cls-3{fill:url(#linear-gradient-4);}.cls-4{fill:url(#linear-gradient-2);}.cls-5{fill:url(#linear-gradient-5);}</style><linearGradient id="linear-gradient" x1="15.489" y1="18.914" x2="43.614" y2="33.861" gradientTransform="matrix(1, 0, 0, 1, 0, 0)" gradientUnits="userSpaceOnUse"><stop offset="0" stop-color="#c6cbcc"/><stop offset="1" stop-color="#9fa5a6"/></linearGradient><linearGradient id="linear-gradient-2" x1="2.886" y1="6.99" x2="35.672" y2="31.74" gradientTransform="matrix(1, 0, 0, 1, 0, 0)" gradientUnits="userSpaceOnUse"><stop offset="0" stop-color="#edf1f2"/><stop offset="1" stop-color="#c6cbcc"/></linearGradient><linearGradient id="linear-gradient-3" x1="28.232" y1="17.732" x2="31.768" y2="21.268" xlink:href="#linear-gradient"/><linearGradient id="linear-gradient-4" x1="19.232" y1="17.732" x2="22.768" y2="21.268" xlink:href="#linear-gradient"/><linearGradient id="linear-gradient-5" x1="10.232" y1="17.732" x2="13.768" y2="21.268" xlink:href="#linear-gradient"/></defs><path class="cls-1" d="M12,11h28c2.757,0,5,2.243,5,5v17c0,2.757-2.243,5-5,5h-3v5.357c0,.397-.235,.758-.601,.917-.128,.056-.265,.083-.399,.083-.247,0-.492-.092-.681-.268l-6.558-6.09H12c-2.757,0-5-2.243-5-5V16c0-2.757,2.243-5,5-5Z"/><path class="cls-4" d="M35,6H7c-2.757,0-5,2.243-5,5V28c0,2.757,2.243,5,5,5h3v5.357c0,.397,.235,.758,.601,.917,.128,.056,.265,.083,.399,.083,.247,0,.492-.092,.681-.268l6.558-6.09h16.762c2.757,0,5-2.243,5-5V11c0-2.757-2.243-5-5-5Z"/><circle class="cls-2" cx="30" cy="19.5" r="2.5"/><circle class="cls-3" cx="21" cy="19.5" r="2.5"/><circle class="cls-5" cx="12" cy="19.5" r="2.5"/></svg>