<?xml version="1.0" encoding="UTF-8"?>
<!DOCTYPE svg PUBLIC "-//W3C//DTD SVG 1.1//EN" "http://www.w3.org/Graphics/SVG/1.1/DTD/svg11.dtd">
<!-- Creator: CorelDRAW -->
<svg xmlns="http://www.w3.org/2000/svg" xml:space="preserve" width="43.3492mm" height="43.3492mm" version="1.1" style="shape-rendering:geometricPrecision; text-rendering:geometricPrecision; image-rendering:optimizeQuality; fill-rule:evenodd; clip-rule:evenodd"
viewBox="0 0 4335 4335"
 xmlns:xlink="http://www.w3.org/1999/xlink">
 <defs>
  <style type="text/css">
   <![CDATA[
    .fil1 {fill:#AADDE3}
    .fil0 {fill:#52ABB3}
    .fil2 {fill:white}
   ]]>
  </style>
 </defs>
 <g id="Layer_x0020_1">
  <metadata id="CorelCorpID_0Corel-Layer"/>
  <path class="fil0" d="M582 3416c-14,0 -28,-3 -42,-14 -18,-17 -25,-42 -18,-67l162 -468 -303 0c-211,0 -380,-169 -380,-377l0 -1504c0,-212 173,-381 380,-381l2790 0c208,0 377,173 377,381l0 1032 539 0c134,0 247,112 247,250l0 888c0,137 -109,250 -247,250l-148 0 85 243c7,24 0,49 -18,67 -10,7 -24,14 -38,14 -11,0 -18,-4 -29,-7l-627 -317 -873 0c-138,0 -247,-113 -247,-250l0 -286 -511 0 -1071 539c-7,7 -17,7 -28,7zm2558 -1613l-652 0c-35,0 -63,-28 -63,-64 0,-35 28,-63 63,-63l652 0c35,0 63,28 63,63 0,36 -32,64 -63,64zm0 -444l-652 0c-35,0 -63,-28 -63,-63 0,-36 28,-64 63,-64l652 0c35,0 63,28 63,64 0,35 -32,63 -63,63zm637 1719l-1028 0c-36,0 -64,-28 -64,-63 0,-36 28,-64 64,-64l1028 0c36,0 64,28 64,64 0,35 -28,63 -64,63zm0 -299l-1028 0c-36,0 -64,-29 -64,-64 0,-35 28,-63 64,-63l1028 0c36,0 64,28 64,63 0,35 -28,64 -64,64zm0 -296l-1028 0c-36,0 -64,-28 -64,-64 0,-35 28,-63 64,-63l1028 0c36,0 64,28 64,63 0,36 -28,64 -64,64zm-1849 -219l-1571 0c-35,0 -64,-28 -64,-63 0,-35 29,-63 64,-63l1571 0c35,0 63,28 63,63 0,39 -28,63 -63,63zm0 -454l-1571 0c-35,0 -64,-28 -64,-63 0,-36 29,-60 64,-60l1571 0c35,0 63,28 63,63 0,35 -28,60 -63,60zm0 -451l-1571 0c-35,0 -64,-28 -64,-63 0,-36 29,-60 64,-60l1571 0c35,0 63,28 63,63 0,35 -28,60 -63,60zm1557 782l0 0 -1 0 -1045 0c-67,0 -124,56 -124,127l0 888c0,70 57,126 124,126l887 0c11,0 18,4 29,7l503 254 -63 -180c-7,-17 -4,-38 7,-56 11,-18 32,-25 49,-25l233 0c67,0 123,-56 123,-126l0 -888c0,-67 -56,-127 -123,-127l-599 0zm-63 -123l0 -1032c0,-141 -117,-258 -254,-258l-2787 0c-140,0 -257,120 -257,258l0 1504c0,137 120,253 257,253l392 0c21,0 38,11 49,25 10,18 14,39 7,56l-141 406 951 -480c4,-3 11,-3 14,-7 4,0 11,0 14,0l525 0 0 -475c0,-134 113,-250 247,-250l983 0z"/>
  <path class="fil1" d="M1928 1236c35,0 63,28 63,63 0,35 -28,60 -63,60l-1571 0c-35,0 -64,-28 -64,-63 0,-36 29,-60 64,-60l1571 0zm-1571 451l1571 0c35,0 63,28 63,63 0,35 -28,60 -63,60l-1571 0c-35,0 -64,-28 -64,-63 0,-36 29,-60 64,-60zm0 451l1571 0c35,0 63,28 63,63 0,39 -28,63 -63,63l-1571 0c-35,0 -64,-28 -64,-63 0,-35 29,-63 64,-63zm472 686l-141 406 951 -480c4,-3 11,-3 14,-7l14 0 525 0 0 -475c0,-134 113,-250 247,-250l983 0 0 -1032c0,-141 -117,-258 -254,-258l-2787 0c-140,0 -257,120 -257,258l0 1504c0,137 120,253 257,253l392 0c21,0 38,11 49,25 10,18 14,39 7,56zm1659 -1592l652 0c35,0 63,28 63,64 0,35 -32,63 -63,63l-652 0c-35,0 -63,-28 -63,-63 0,-36 28,-64 63,-64zm0 444l652 0c35,0 63,28 63,63 0,36 -32,64 -63,64l-652 0c-35,0 -63,-28 -63,-64 0,-35 28,-63 63,-63z"/>
  <path class="fil2" d="M3777 2483l-1028 0c-36,0 -64,-28 -64,-64 0,-35 28,-63 64,-63l1028 0c36,0 64,28 64,63 0,36 -28,64 -64,64zm-293 -342l-1045 0c-67,0 -124,56 -124,127l0 888c0,70 57,126 124,126l887 0c11,0 18,4 29,7l503 254 -63 -180c-7,-17 -4,-38 7,-56 11,-18 32,-25 49,-25l233 0c67,0 123,-56 123,-126l0 -888c0,-67 -56,-127 -123,-127l-599 0 0 0 -1 0zm-735 511l1028 0c36,0 64,28 64,63 0,35 -28,64 -64,64l-1028 0c-36,0 -64,-29 -64,-64 0,-35 28,-63 64,-63zm0 299l1028 0c36,0 64,28 64,64 0,35 -28,63 -64,63l-1028 0c-36,0 -64,-28 -64,-63 0,-36 28,-64 64,-64z"/>
 </g>
</svg>
