<?xml version="1.0" encoding="UTF-8" standalone="no"?> <svg xmlns="http://www.w3.org/2000/svg" xmlns:xlink="http://www.w3.org/1999/xlink" viewBox="0 0 64 64"><defs><style>.cls-1{fill:url(#linear-gradient);}.cls-2{fill:url(#linear-gradient-2);}</style><linearGradient id="linear-gradient" x1="3.4" y1="32" x2="60.6" y2="32" gradientUnits="userSpaceOnUse"><stop offset="0" stop-color="#5bb4f6"/><stop offset="0.61" stop-color="#2191e5"/><stop offset="1" stop-color="#007edb"/></linearGradient><linearGradient id="linear-gradient-2" x1="18.14" x2="45.86" xlink:href="#linear-gradient"/></defs><g id="Layer_8" data-name="Layer 8"><path class="cls-1" d="M32,3.4h0A28.59,28.59,0,0,0,3.4,32h0A28.59,28.59,0,0,0,32,60.6h0A28.59,28.59,0,0,0,60.6,32h0A28.59,28.59,0,0,0,32,3.4Zm0,53.35A24.75,24.75,0,1,1,56.75,32,24.77,24.77,0,0,1,32,56.75Z"/><path class="cls-2" d="M44.63,25.27a4.17,4.17,0,1,0-5.9-5.9L33.89,24.2a2.68,2.68,0,0,1-3.78,0l-4.84-4.83a4.17,4.17,0,0,0-5.9,5.9l4.83,4.84a2.68,2.68,0,0,1,0,3.78l-4.83,4.84a4.17,4.17,0,0,0,5.9,5.9l4.84-4.83a2.68,2.68,0,0,1,3.78,0l4.84,4.83a4.17,4.17,0,0,0,5.9-5.9L39.8,33.89a2.68,2.68,0,0,1,0-3.78Z"/></g></svg>